<svg xmlns="http://www.w3.org/2000/svg" viewBox="0 0 500 500"><defs><style>.cls-1{fill:#3a489e;fill-rule:evenodd;}.cls-2{fill:#74cfeb;}</style></defs><g id="MasterLayer_1" data-name="MasterLayer 1"><path class="cls-1" d="M487.791,342.454c1.757-25.952,1.227-25.937-3.483-8.706-14.659,51.708-27.917,67.113-53.035,61.622-14.961-3.194-23.956-17.957-76.4-123.674-19.966-40.939-32.429-63.438-41.993-74.306-16.078,8.018-32.247,16.323-48.409,25.742-7.982,13.294-17.147,31.425-27.487,55.967-18.142,43-36.283,86-41.278,94.954-15.391,30.49-38.652,36.488-57.791,4.405-6.374-10.114-9.4-24-12.977-77.472-31.65,11.569-61.241,24.863-92.291,39.189,1.263,14.421,3.021,27.055,5.459,35.467,2.424,8.363,11.636,23.621,16.966,30.592C74.462,431.581,133.79,482.927,173.4,457.7c25.844-16.461,45.643-40.156,74.513-110.405,14.153-35.635,16.566-42.259,18.155-42.305s11.167,6.763,27.764,42.028c41.678,85.825,70.105,110.387,118.583,101.217C452.978,440.33,485.354,394.845,487.791,342.454Z"/><path class="cls-1" d="M120.428,216.6C112.622,67.111,112.6,67.143,99.566,57.645,80.485,43.738,58.339,46.4,40.419,65.051L25.058,81.036,30.1,229.7s-1.188,66.559,2.955,113.867c31.05-14.326,60.64-27.62,92.291-39.19C123.888,282.532,122.337,254.1,120.428,216.6Z"/><path class="cls-1" d="M298.452,188.887c-6.394.185-17.739,7.2-33.977,34.245,16.162-9.419,32.331-17.724,48.409-25.742C307.412,191.172,302.888,188.759,298.452,188.887Z"/><path class="cls-2" d="M145.143,293.66c.468,43.213,8.112,57.418,30,56.786,14.836-.429,16.318-3.58,53.041-92.186q4.116-9.844,7.821-18.608c-21.112,12.935-40.518,26.162-62.461,39.663A218.229,218.229,0,0,1,145.143,293.66Z"/><path class="cls-2" d="M260.145,93.122c-44.651-2.855-69.757,22.735-97.848,100.215-12.616,34.036-16.706,53.839-17.118,88.04-.068,4.342-.078,8.417-.036,12.283a218.229,218.229,0,0,0,28.4-14.345c21.943-13.5,41.349-26.728,62.461-39.663,35.127-83.028,44.719-96.875,64.022-97.433,15.054-.435,16.068,4.538,35.25,44.072q8.577-4.258,17.1-8.595C315.977,107.71,300.164,95.18,260.145,93.122Z"/><path class="cls-2" d="M460.49,113.957c-15.577,10.02-32.694,18.556-48.237,28.92A460.83,460.83,0,0,1,372.4,167.131c1.037,41.045-.417,49.387-4.887,40.483-5.452-10.992-10.465-20.924-15.143-29.918q-8.519,4.355-17.1,8.595c10.524,21.692,26.513,53.778,53.3,101.106,26.742,52.585,37.714,55.8,49.954,57,11.18,1.231,15.842-2.011,21.772-14.615,6.442-13.137,7.193-37.506,3.606-141.526C462.968,160.947,461.753,135.258,460.49,113.957Z"/><path class="cls-2" d="M460.49,113.957c-1.944-32.794-4-55.184-5.352-57.029-7.775-10.136-30.987-21.9-41.566-21.075-5.829.168-15.807,3.046-21.528,6.32-18.771,9.348-22.385,27.584-20.256,104.708.258,7.49.464,14.22.616,20.25a460.83,460.83,0,0,0,39.849-24.254C427.8,132.513,444.913,123.977,460.49,113.957Z"/></g></svg>